<?xml version="1.0" standalone="no"?>
<!DOCTYPE svg PUBLIC "-//W3C//DTD SVG 20010904//EN"
 "http://www.w3.org/TR/2001/REC-SVG-20010904/DTD/svg10.dtd">
<svg version="1.0" xmlns="http://www.w3.org/2000/svg"
 width="2401.000000pt" height="1778.000000pt" viewBox="0 0 2401.000000 1778.000000"
 preserveAspectRatio="xMidYMid meet">

<g transform="translate(0.000000,1778.000000) scale(0.100000,-0.100000)"
fill="#000000" stroke="none">
<path d="M7730 17764 c-19 -2 -93 -9 -165 -15 -796 -66 -1618 -309 -2510 -743
-480 -234 -1015 -555 -1398 -839 -62 -45 -147 -107 -190 -137 -73 -50 -139
-121 -119 -128 5 -1 101 20 213 48 318 79 420 94 649 94 279 0 499 -43 727
-140 153 -65 164 -66 243 -11 436 305 871 565 1303 778 507 249 1028 419 1527
496 177 27 554 25 715 -4 517 -94 884 -391 1024 -828 53 -163 65 -251 65 -455
0 -144 -5 -214 -23 -315 -66 -391 -185 -710 -389 -1039 -78 -126 -253 -357
-304 -401 -51 -44 -135 -88 -153 -81 -22 8 -45 97 -56 221 -49 562 -129 1296
-152 1395 l-12 55 -130 8 c-72 5 -203 6 -291 2 l-161 -7 -166 -297 c-274 -490
-571 -1033 -1160 -2116 -668 -1230 -932 -1712 -998 -1822 -115 -190 -115 -212
-9 -393 40 -69 113 -200 161 -292 82 -157 162 -288 175 -288 20 0 892 650
1179 878 1184 942 1932 1800 2440 2797 207 407 349 823 406 1191 27 175 38
578 19 735 -27 244 -74 417 -161 598 -273 572 -814 929 -1569 1037 -109 15
-637 28 -730 18z"/>
<path d="M12130 17583 c-58 -287 -216 -998 -304 -1366 -20 -82 -36 -158 -36
-168 0 -18 9 -19 129 -19 72 0 132 4 135 9 4 5 29 121 56 258 60 293 155 719
239 1071 34 139 61 257 61 262 0 6 -54 10 -134 10 l-135 0 -11 -57z"/>
<path d="M12806 17632 c-3 -5 -35 -150 -71 -323 -82 -389 -171 -790 -236
-1057 -27 -112 -49 -208 -49 -213 0 -6 186 -8 467 -7 l468 3 27 80 c42 129 80
115 -318 115 -324 0 -345 1 -340 18 3 9 30 129 60 265 31 136 58 253 62 259 5
8 91 9 305 5 222 -4 300 -3 307 6 10 13 52 147 52 166 0 7 -97 12 -313 13
l-313 3 54 240 c29 132 56 242 59 245 2 3 149 5 325 5 l321 0 23 80 c13 44 24
86 24 93 0 9 -97 12 -454 12 -250 0 -457 -4 -460 -8z"/>
<path d="M14035 17628 c-2 -7 -31 -146 -65 -308 -78 -377 -167 -774 -236
-1059 -30 -123 -52 -226 -50 -228 8 -9 921 -2 930 7 12 12 65 178 58 185 -3 3
-158 5 -344 5 -315 0 -338 1 -338 18 1 9 27 132 59 272 l57 255 300 1 c164 0
304 1 310 2 11 2 54 135 54 166 0 14 -34 16 -310 16 -170 0 -310 3 -310 8 0 4
23 113 52 244 l53 236 35 6 c19 3 164 3 321 -1 200 -4 288 -3 293 5 12 19 53
172 48 177 -3 3 -209 5 -459 5 -354 0 -455 -3 -458 -12z"/>
<path d="M15270 17637 c0 -35 -239 -1121 -309 -1402 -33 -134 -45 -198 -37
-201 6 -2 218 -3 470 -2 l459 3 28 90 c16 50 29 93 29 98 0 4 -155 7 -345 7
-190 0 -345 2 -345 5 0 7 98 450 112 504 l11 44 303 -6 c228 -4 305 -3 312 6
5 7 17 44 27 82 10 39 20 76 23 83 3 9 -63 12 -312 12 -174 0 -316 1 -316 3 0
18 109 480 115 485 4 4 148 5 320 4 253 -3 314 -1 321 10 8 12 53 155 54 171
0 4 -207 7 -460 7 -253 0 -460 -1 -460 -3z"/>
<path d="M4055 15793 c-484 -41 -912 -209 -1398 -550 -110 -78 -181 -145 -174
-166 2 -7 29 -13 66 -15 53 -3 74 2 144 33 141 62 418 171 517 204 382 125
765 118 1050 -21 91 -44 117 -62 192 -138 71 -71 95 -102 127 -171 57 -118 72
-185 78 -334 9 -248 -54 -447 -243 -766 -233 -392 -626 -764 -1060 -1003 -186
-102 -445 -206 -684 -275 -21 -7 -26 -15 -32 -62 -8 -73 -9 -190 -1 -272 l6
-68 109 -94 c60 -52 181 -152 270 -223 656 -518 1253 -999 2043 -1646 242
-199 460 -371 484 -383 43 -22 54 -23 294 -23 212 0 254 2 284 17 34 16 35 18
31 62 -4 39 -61 141 -348 631 -336 574 -824 1414 -1010 1739 -85 149 -92 166
-76 175 284 171 493 365 657 610 217 322 319 675 319 1101 0 694 -275 1223
-769 1478 -248 128 -567 187 -876 160z"/>
<path d="M14562 15715 c-100 -18 -184 -34 -187 -36 -2 -3 -13 -61 -25 -129
-12 -69 -36 -196 -55 -282 -44 -200 -248 -1082 -280 -1210 -14 -53 -25 -101
-25 -107 0 -8 90 -11 288 -11 383 0 496 18 651 100 326 174 483 705 291 985
-106 154 -324 189 -530 85 -34 -17 -60 -25 -60 -19 0 6 36 153 80 326 44 173
78 319 74 324 -7 12 -13 12 -222 -26z m277 -844 c128 -91 84 -404 -81 -573
-68 -70 -141 -101 -251 -106 -71 -4 -86 -2 -83 9 3 8 35 147 71 309 36 162 70
305 76 318 5 13 31 33 61 48 69 33 157 30 207 -5z"/>
<path d="M18106 15681 c-128 -19 -181 -30 -187 -41 -17 -30 -69 -304 -61 -312
10 -10 372 38 385 52 12 10 76 268 77 303 0 32 17 32 -214 -2z"/>
<path d="M11688 15543 l-67 -4 -6 -37 c-39 -238 -145 -724 -281 -1275 -41
-170 -64 -281 -58 -286 5 -5 96 -6 203 -2 l194 6 48 240 c27 132 56 272 66
310 l18 70 56 3 56 3 51 -144 c28 -79 74 -217 102 -308 29 -90 57 -169 62
-176 7 -9 40 -11 121 -7 224 10 297 16 297 25 0 5 -58 152 -129 327 -71 174
-131 323 -133 330 -2 9 22 23 67 39 197 71 319 215 347 412 14 97 2 206 -31
275 -28 57 -89 119 -147 146 -100 49 -131 53 -459 55 -170 1 -340 0 -377 -2z
m544 -294 c59 -33 80 -76 76 -155 -10 -165 -143 -264 -354 -264 -49 0 -84 4
-84 10 0 19 90 395 100 419 11 23 12 24 115 19 84 -5 112 -10 147 -29z"/>
<path d="M17425 15539 c-16 -6 -99 -28 -184 -50 -85 -22 -157 -42 -161 -44 -4
-3 -10 -23 -14 -46 -4 -22 -18 -90 -32 -150 l-26 -109 -78 0 c-43 0 -82 -4
-85 -10 -11 -18 -66 -223 -62 -234 2 -7 33 -9 86 -7 77 3 82 1 77 -16 -3 -10
-36 -142 -73 -293 -62 -253 -67 -284 -68 -385 0 -99 2 -114 25 -153 30 -53 95
-97 163 -112 89 -19 341 -9 365 14 9 10 72 242 68 253 -3 8 -15 8 -43 -3 -90
-32 -184 -6 -198 55 -8 36 -1 72 71 371 30 124 56 235 59 248 6 23 8 24 115
21 60 -2 111 -1 113 1 4 6 77 235 77 244 0 3 -54 6 -120 6 -66 0 -120 2 -120
5 0 3 20 86 45 185 45 178 52 221 38 219 -5 0 -21 -5 -38 -10z"/>
<path d="M21638 15499 c-180 -23 -312 -129 -353 -284 -27 -106 -13 -225 43
-347 l29 -65 -101 -50 c-122 -61 -210 -126 -254 -186 -156 -217 -94 -504 132
-611 162 -76 409 -56 588 49 33 19 61 35 63 35 3 0 19 -25 37 -56 l32 -57 104
7 c58 3 152 6 209 6 57 0 103 4 103 9 0 6 -40 73 -90 150 -49 78 -90 145 -90
151 0 5 23 28 51 52 66 56 229 238 229 256 0 7 -13 32 -28 55 -16 23 -48 75
-72 115 -23 39 -48 72 -54 72 -7 0 -36 -35 -64 -77 -27 -43 -86 -116 -129
-162 l-78 -84 -79 137 c-43 75 -77 138 -75 140 2 1 49 32 104 68 179 118 236
197 243 341 4 83 3 91 -27 152 -52 105 -151 165 -305 185 -80 11 -77 11 -168
-1z m172 -238 c14 -10 31 -36 39 -57 13 -36 12 -44 -7 -86 -15 -36 -37 -59
-89 -97 -37 -28 -72 -49 -78 -48 -5 2 -22 33 -38 68 -48 112 -27 196 58 235
36 17 80 11 115 -15z m-235 -844 c41 -73 75 -138 75 -144 0 -7 -32 -28 -71
-47 -116 -58 -201 -46 -262 35 -38 52 -21 154 35 206 37 34 130 93 139 87 5
-2 42 -64 84 -137z"/>
<path d="M13290 15156 c-182 -39 -310 -123 -406 -267 -138 -208 -181 -526 -96
-719 48 -111 148 -194 280 -233 52 -15 99 -20 207 -21 162 -1 214 9 332 65
188 89 314 267 358 504 24 125 17 317 -13 395 -47 120 -150 213 -287 259 -88
29 -275 38 -375 17z m237 -252 c42 -31 62 -65 72 -119 11 -57 -1 -192 -25
-293 -23 -94 -96 -243 -137 -279 -122 -107 -276 -67 -306 78 -9 42 -9 79 0
150 30 248 111 418 224 471 51 24 134 20 172 -8z"/>
<path d="M15964 15159 c-322 -54 -536 -325 -560 -709 -14 -228 73 -403 241
-481 127 -60 347 -75 500 -35 232 62 401 239 466 491 26 101 36 298 20 377
-38 183 -169 308 -368 352 -76 17 -214 19 -299 5z m193 -240 c80 -30 109 -100
100 -247 -10 -178 -75 -367 -154 -448 -136 -140 -323 -63 -323 131 1 112 44
305 91 399 68 137 183 204 286 165z"/>
<path d="M18015 15144 c-77 -12 -160 -26 -185 -31 l-45 -8 -26 -155 c-29 -169
-103 -501 -179 -809 -27 -108 -46 -199 -42 -203 4 -3 96 -4 205 -1 233 7 206
-13 237 173 34 197 138 675 205 941 14 54 25 102 25 108 0 15 -32 12 -195 -15z"/>
<path d="M18855 15164 c-11 -2 -45 -9 -75 -15 -73 -14 -203 -78 -264 -129
-103 -86 -182 -206 -226 -345 -31 -98 -39 -294 -16 -385 61 -240 253 -379 523
-380 85 0 211 23 262 47 36 18 37 20 74 162 21 78 36 146 32 149 -3 3 -16 0
-28 -8 -141 -92 -284 -103 -385 -30 -182 131 -105 540 121 645 99 47 241 28
307 -40 54 -55 61 -49 99 83 51 177 53 157 -21 192 -36 17 -96 37 -134 45 -63
13 -220 18 -269 9z"/>
<path d="M19765 15154 c-148 -33 -251 -108 -307 -222 -31 -62 -33 -74 -33
-167 0 -91 3 -104 27 -146 40 -68 90 -108 223 -178 151 -79 180 -106 180 -165
0 -78 -70 -127 -184 -127 -115 -1 -199 31 -277 103 -24 22 -49 38 -56 35 -13
-4 -78 -217 -78 -251 0 -20 116 -77 205 -102 90 -24 311 -30 405 -10 97 20
208 75 262 130 114 114 148 288 82 423 -35 73 -106 132 -242 202 -65 33 -130
72 -145 87 -37 37 -37 91 1 126 37 37 73 48 147 48 85 0 161 -29 225 -87 28
-25 54 -42 58 -38 4 3 23 60 43 126 27 90 33 123 25 134 -13 17 -87 49 -164
70 -84 24 -309 29 -397 9z"/>
<path d="M3290 15040 c-750 -93 -1334 -445 -1897 -1145 -369 -459 -615 -885
-786 -1355 -237 -657 -267 -1345 -80 -1850 157 -422 448 -736 878 -946 557
-271 1331 -341 2195 -198 421 69 840 182 1198 323 l133 53 -28 33 c-35 42
-223 199 -263 220 -42 21 -75 19 -183 -14 -192 -60 -635 -141 -967 -178 -215
-23 -664 -23 -845 1 -460 60 -792 187 -1034 396 -265 228 -396 571 -361 945
37 402 208 814 526 1265 284 403 759 900 1254 1311 343 284 766 589 1024 739
113 65 120 93 44 169 -102 102 -260 182 -423 216 -98 20 -284 27 -385 15z"/>
<path d="M20831 13604 c-91 -13 -169 -28 -173 -32 -13 -13 -78 -316 -70 -324
4 -4 92 5 196 20 135 20 191 31 198 42 13 24 78 302 72 311 -7 12 -34 10 -223
-17z"/>
<path d="M11961 13473 c-134 -2 -229 -8 -237 -14 -7 -5 -76 -132 -154 -282
-186 -355 -422 -796 -577 -1076 -67 -124 -119 -229 -115 -233 5 -5 91 -7 193
-6 l184 3 20 40 c11 22 57 118 103 213 l83 172 239 0 240 0 1 -77 c1 -43 4
-141 8 -217 l6 -139 194 2 c106 1 199 5 206 7 6 3 10 15 8 27 -6 38 -71 847
-98 1216 -14 194 -28 357 -31 362 -3 5 -15 8 -27 7 -12 -2 -123 -4 -246 -5z
m-37 -635 l7 -278 -165 0 c-104 0 -166 4 -166 10 0 5 69 147 153 315 146 294
152 304 158 268 4 -21 10 -163 13 -315z"/>
<path d="M14589 13465 c-3 -2 -83 -25 -178 -49 -95 -25 -175 -47 -178 -49 -2
-3 -19 -69 -36 -148 l-32 -144 -77 -3 c-44 -2 -80 -8 -86 -15 -13 -16 -72
-229 -66 -239 3 -4 41 -8 85 -8 43 0 79 -2 79 -4 0 -2 -29 -124 -65 -271 -35
-147 -70 -302 -76 -344 -39 -253 79 -363 376 -347 142 7 171 13 180 35 20 49
72 242 66 246 -4 2 -31 -3 -60 -12 -108 -31 -188 7 -184 90 1 23 31 166 67
318 36 152 66 279 66 283 0 3 49 6 109 6 77 0 112 4 118 13 12 19 65 189 66
217 l2 24 -117 -3 c-65 -1 -118 -1 -118 1 0 1 23 91 50 198 27 106 46 198 44
202 -6 9 -28 11 -35 3z"/>
<path d="M20168 13465 c-3 -3 -82 -25 -177 -49 -94 -24 -174 -46 -177 -49 -3
-3 -20 -69 -37 -148 l-32 -144 -77 -3 c-44 -2 -80 -8 -86 -15 -14 -17 -72
-228 -66 -238 3 -5 41 -9 85 -9 43 0 79 -2 79 -4 0 -2 -29 -124 -65 -271 -36
-147 -71 -302 -77 -345 -34 -241 71 -350 336 -350 98 0 195 15 213 33 16 15
83 246 73 252 -4 2 -29 -3 -56 -11 -109 -34 -191 6 -187 90 1 24 31 168 67
319 36 152 66 279 66 282 0 2 50 6 111 7 87 2 114 6 120 18 16 32 70 222 64
228 -3 4 -58 5 -121 3 -63 -1 -114 -1 -114 1 0 1 23 91 50 198 27 106 46 198
44 202 -6 9 -28 11 -36 3z"/>
<path d="M16659 13096 c-2 -3 -86 -18 -187 -35 -100 -17 -187 -33 -192 -36 -6
-3 -10 -20 -10 -37 0 -46 -101 -537 -175 -848 -36 -151 -61 -277 -57 -280 4
-3 92 -3 197 0 l189 5 14 70 c41 212 174 790 184 803 24 28 111 62 161 62 40
0 53 -5 78 -29 25 -26 29 -37 29 -87 0 -63 -44 -285 -119 -604 -26 -113 -47
-209 -45 -215 5 -13 364 -7 380 6 6 5 17 37 23 72 7 34 34 163 61 287 66 305
90 427 90 459 0 70 156 135 244 101 14 -5 33 -21 42 -35 33 -51 19 -144 -97
-629 -33 -136 -58 -253 -56 -259 5 -15 368 -10 383 6 7 7 35 125 63 262 29
138 70 336 92 440 47 222 48 282 4 370 -86 177 -376 195 -610 37 l-70 -47 -30
45 c-16 24 -50 58 -73 75 -43 29 -47 30 -155 29 -130 0 -186 -18 -293 -89 -35
-24 -64 -40 -64 -37 1 4 7 33 14 64 11 46 11 59 2 68 -7 5 -15 8 -17 6z"/>
<path d="M20755 13068 c-93 -15 -185 -30 -203 -34 -38 -6 -35 2 -57 -139 -19
-128 -116 -567 -184 -836 -26 -103 -45 -191 -44 -195 5 -14 396 -5 409 9 7 7
22 71 34 142 12 72 42 225 66 340 38 178 66 297 156 678 7 29 8 50 2 55 -5 4
-85 -5 -179 -20z"/>
<path d="M22865 13084 c-38 -8 -123 -23 -188 -33 -64 -10 -119 -20 -121 -22
-3 -2 -10 -42 -16 -89 -18 -132 -72 -396 -151 -735 -39 -170 -72 -319 -73
-329 -1 -19 7 -20 189 -17 105 1 194 6 198 11 5 4 33 124 62 266 113 547 122
587 153 611 41 34 117 56 170 50 35 -4 53 -12 74 -36 50 -56 41 -134 -79 -649
-31 -136 -52 -246 -47 -250 5 -4 92 -5 193 -2 150 4 185 8 192 20 9 18 131
610 160 775 24 142 20 216 -17 293 -45 93 -139 142 -274 142 -97 0 -211 -33
-289 -85 -29 -20 -56 -33 -58 -31 -3 3 0 27 7 55 11 47 8 73 -8 70 -4 -1 -38
-8 -77 -15z"/>
<path d="M15260 13074 c-90 -19 -218 -85 -286 -147 -150 -136 -236 -357 -236
-602 1 -258 117 -415 349 -472 93 -22 286 -22 378 1 231 56 404 230 475 476
31 108 40 342 15 425 -48 167 -168 278 -347 320 -79 18 -261 18 -348 -1z m244
-238 c75 -31 104 -121 86 -268 -29 -242 -110 -416 -222 -474 -45 -23 -128 -22
-169 2 -69 41 -93 123 -77 268 26 238 107 408 223 469 37 20 115 21 159 3z"/>
<path d="M21535 13075 c-209 -47 -343 -153 -442 -349 -57 -114 -86 -239 -87
-386 -1 -150 20 -234 83 -322 99 -137 310 -207 546 -179 321 38 532 244 590
576 18 103 19 243 4 317 -36 172 -162 294 -354 343 -73 19 -256 19 -340 0z
m245 -247 c18 -13 43 -36 54 -51 48 -65 24 -327 -46 -495 -43 -102 -114 -179
-184 -197 -87 -22 -157 5 -199 76 -16 28 -20 51 -19 129 2 238 96 475 213 537
60 31 136 31 181 1z"/>
<path d="M12877 13063 c-135 -4 -127 2 -147 -113 -6 -36 -40 -191 -75 -345
-81 -353 -88 -400 -83 -494 8 -131 75 -222 192 -256 65 -20 189 -19 257 1 59
17 169 74 189 99 23 27 28 16 16 -32 -7 -27 -11 -52 -9 -58 4 -13 353 -7 369
6 6 5 19 49 28 97 32 161 145 669 196 878 27 114 50 211 50 216 0 13 -372 -1
-386 -16 -6 -6 -21 -63 -33 -126 -67 -346 -152 -716 -169 -728 -85 -66 -204
-87 -259 -46 -15 12 -34 38 -42 59 -20 51 -4 142 93 545 41 168 72 308 69 313
-2 4 -34 6 -71 5 -37 -1 -120 -4 -185 -5z"/>
<path d="M18812 13059 c-343 -40 -584 -252 -663 -585 -23 -97 -28 -259 -9
-338 41 -182 162 -285 342 -294 107 -5 195 18 286 78 57 36 62 38 57 17 -5
-25 -8 -57 -6 -72 2 -15 343 -7 357 8 6 7 21 73 33 147 24 148 79 401 171 784
32 137 57 253 54 258 -7 10 -526 8 -622 -3z m198 -243 c0 -8 -91 -421 -117
-531 -14 -60 -31 -116 -37 -124 -20 -25 -110 -61 -154 -61 -149 0 -216 144
-163 353 49 191 152 311 301 351 50 13 170 22 170 12z"/>
<path d="M8943 12508 c-33 -35 -127 -135 -210 -223 -267 -282 -517 -524 -772
-745 -30 -27 -33 -34 -28 -69 3 -24 46 -116 106 -228 56 -103 232 -449 392
-768 314 -627 321 -639 347 -651 22 -10 357 -17 437 -9 33 3 67 10 74 15 20
12 16 236 -8 460 -12 102 -37 356 -56 565 -50 537 -154 1602 -161 1650 -13 85
-43 85 -121 3z"/>
<path d="M14750 11524 c-52 -8 -99 -20 -106 -27 -17 -19 -57 -208 -45 -220 10
-10 240 18 252 31 12 12 60 212 54 222 -8 12 -35 11 -155 -6z"/>
<path d="M11335 11426 c-269 -62 -419 -248 -402 -499 6 -95 38 -166 102 -229
47 -47 87 -72 268 -168 193 -104 250 -168 250 -285 0 -294 -453 -402 -711
-170 -28 25 -54 45 -59 45 -6 0 -22 -48 -38 -107 l-28 -107 29 -23 c42 -34
125 -71 212 -95 64 -18 105 -21 242 -22 153 0 171 2 246 27 212 70 346 228
370 435 20 185 -76 334 -291 451 -55 30 -129 70 -164 89 -79 43 -140 97 -158
139 -22 55 -17 134 15 193 53 103 153 152 307 152 128 0 265 -51 330 -122 10
-11 23 -20 29 -20 7 0 26 44 44 97 24 75 29 100 20 111 -18 21 -114 67 -193
92 -89 29 -325 38 -420 16z"/>
<path d="M16535 11307 c-66 -17 -121 -31 -123 -33 -2 -1 -18 -66 -35 -145
l-32 -144 -80 -3 c-44 -2 -83 -6 -88 -11 -12 -12 -48 -151 -42 -162 4 -5 38
-7 86 -3 58 5 79 4 79 -5 0 -7 -24 -114 -54 -239 -85 -355 -108 -471 -109
-553 -1 -66 3 -82 27 -124 22 -37 40 -53 85 -74 50 -23 67 -26 166 -25 151 0
161 6 193 112 14 45 23 85 20 88 -3 3 -32 -2 -63 -12 -70 -20 -128 -14 -161
17 -43 40 -35 95 80 571 30 125 57 232 61 238 5 8 46 10 123 8 l117 -3 27 79
c16 43 25 82 22 87 -3 5 -61 9 -130 9 -68 0 -124 1 -124 3 0 1 20 79 45 172
24 94 41 173 37 176 -4 3 -61 -8 -127 -24z"/>
<path d="M12562 10999 c-244 -37 -431 -230 -507 -524 -40 -155 -38 -343 5
-458 27 -73 104 -158 173 -192 115 -56 325 -70 450 -31 158 50 278 157 356
318 66 135 91 239 98 404 4 105 2 142 -12 190 -41 145 -155 249 -310 282 -76
17 -183 21 -253 11z m189 -174 c62 -22 116 -79 134 -139 51 -171 -40 -517
-171 -651 -56 -58 -115 -87 -190 -93 -78 -6 -126 10 -180 60 -62 57 -78 112
-72 247 8 170 62 341 143 451 85 116 219 166 336 125z"/>
<path d="M13869 11000 c-231 -31 -411 -166 -509 -384 -65 -143 -90 -357 -55
-485 58 -218 247 -362 475 -361 83 1 204 22 260 46 42 19 43 20 71 119 40 143
39 147 -32 95 -89 -64 -219 -89 -316 -62 -95 28 -187 119 -215 215 -20 72 -14
202 16 293 44 139 149 270 252 315 132 59 296 37 390 -53 38 -36 42 -32 77 82
29 95 28 98 -39 129 -90 43 -263 66 -375 51z"/>
<path d="M15448 10999 c-301 -40 -522 -315 -545 -679 -23 -365 189 -568 572
-547 60 4 133 13 162 20 85 24 162 64 172 89 11 27 61 193 61 202 0 13 -22 4
-83 -34 -113 -71 -164 -85 -312 -85 -122 0 -133 2 -187 28 -106 52 -148 131
-148 279 l0 88 410 0 c473 0 422 -14 441 125 29 224 -41 392 -196 468 -89 44
-227 62 -347 46z m220 -181 c88 -42 130 -146 106 -267 l-6 -31 -294 0 c-263 0
-294 2 -294 16 0 30 59 140 101 187 100 114 262 154 387 95z"/>
<path d="M14680 10983 c-47 -7 -103 -17 -125 -21 l-40 -7 -22 -115 c-45 -234
-116 -562 -170 -790 -30 -129 -56 -239 -57 -245 0 -6 46 -9 129 -6 72 2 131 4
132 5 2 1 21 94 43 207 56 280 123 590 171 798 23 95 37 176 32 180 -4 4 -46
2 -93 -6z"/>
<path d="M16955 10981 l-90 -6 2 -30 c0 -16 40 -279 87 -584 l86 -554 -65
-106 c-35 -58 -113 -182 -174 -276 -60 -93 -107 -173 -105 -177 9 -14 240 -9
252 5 5 6 39 67 76 135 109 200 340 596 642 1099 156 260 284 477 284 483 0 6
-45 10 -119 10 l-119 0 -62 -117 c-35 -65 -142 -259 -239 -431 -131 -234 -177
-309 -183 -295 -7 19 -69 525 -89 723 -6 63 -13 118 -16 123 -4 7 -16 7 -168
-2z"/>
<path d="M9729 10426 c-60 -16 -130 -58 -165 -98 -84 -100 -104 -248 -50 -365
33 -72 94 -134 164 -166 38 -18 66 -22 142 -22 84 0 101 3 147 28 66 34 116
84 150 150 25 46 28 63 28 147 0 76 -4 104 -21 141 -70 150 -236 228 -395 185z
m183 -62 c105 -35 181 -144 182 -258 1 -205 -214 -342 -397 -252 -213 104
-208 402 8 502 60 28 140 31 207 8z"/>
<path d="M9670 10101 l0 -181 30 0 30 0 0 75 0 75 33 0 c38 0 59 -19 107 -97
28 -47 35 -53 66 -53 l35 0 -23 41 c-13 22 -38 58 -56 79 -30 36 -31 39 -13
45 31 10 71 63 71 96 0 18 -11 41 -29 61 -29 33 -29 33 -140 36 l-111 4 0
-181z m200 109 c24 -24 25 -39 6 -65 -10 -14 -30 -20 -80 -23 l-66 -4 0 56 0
56 60 0 c47 0 64 -4 80 -20z"/>
<path d="M0 6420 l0 -60 12000 0 12000 0 0 60 0 60 -12000 0 -12000 0 0 -60z"/>
<path d="M5800 3431 c-153 -26 -155 -26 -153 -51 17 -263 25 -631 21 -1014
l-5 -458 166 7 c91 4 166 8 167 9 0 0 -1 346 -4 769 -4 700 -6 767 -21 766 -9
-1 -86 -13 -171 -28z"/>
<path d="M12347 3435 c-76 -13 -143 -25 -150 -28 -11 -4 -12 -52 -9 -229 l5
-225 -119 -6 c-189 -10 -286 -44 -386 -136 -103 -94 -148 -209 -155 -396 -7
-189 26 -308 112 -403 59 -66 191 -122 285 -122 61 0 153 29 205 65 l50 35 3
-40 3 -40 160 2 160 3 2 773 c2 681 0 772 -13 771 -8 -1 -77 -11 -153 -24z
m-157 -989 l0 -274 -43 -21 c-57 -28 -138 -28 -182 -1 -17 11 -45 43 -61 72
-28 51 -29 58 -29 183 0 122 2 133 28 187 43 88 111 127 225 128 l62 0 0 -274z"/>
<path d="M8534 3410 c-72 -9 -136 -20 -142 -24 -8 -4 -10 -52 -7 -144 l4 -137
28 1 c15 0 87 9 160 19 l131 19 7 110 c9 150 6 171 -25 173 -14 0 -84 -7 -156
-17z"/>
<path d="M21292 3410 c-74 -10 -137 -22 -142 -26 -4 -5 -6 -71 -3 -148 l6
-138 36 6 c20 3 91 14 158 23 l122 17 6 50 c4 28 5 92 3 141 -4 107 11 102
-186 75z"/>
<path d="M6653 3398 c-6 -7 -20 -45 -32 -85 -12 -40 -37 -109 -56 -155 -19
-45 -35 -86 -35 -91 0 -4 50 -6 112 -5 l112 3 107 167 c59 91 105 169 102 172
-4 3 -73 6 -153 6 -106 0 -150 -4 -157 -12z"/>
<path d="M14835 3294 c-250 -52 -429 -243 -486 -519 -27 -131 -23 -314 11
-420 53 -167 166 -314 295 -382 121 -63 191 -78 375 -78 158 0 169 2 250 30
l85 30 8 149 c5 81 7 150 4 152 -2 2 -31 -12 -63 -31 -83 -50 -153 -69 -254
-69 -72 0 -95 5 -147 28 -145 66 -223 210 -223 411 0 206 75 357 208 422 52
26 67 28 168 28 109 0 111 -1 190 -40 43 -22 82 -41 86 -43 7 -3 14 52 24 189
l6 87 -64 21 c-152 51 -332 64 -473 35z"/>
<path d="M20104 3283 l-160 -3 4 -683 c2 -375 5 -683 7 -685 2 -2 81 -1 175 3
l172 8 -6 36 c-3 20 -9 136 -13 258 l-6 222 36 6 c20 4 43 5 51 2 17 -7 128
-202 225 -396 l72 -143 182 7 c100 4 186 11 191 16 6 5 -1 23 -18 46 -84 114
-353 540 -345 547 2 2 28 16 58 32 75 40 137 104 169 172 23 50 27 70 27 157
0 203 -78 324 -243 375 -73 24 -255 31 -578 23z m396 -255 c57 -30 82 -65 88
-127 8 -91 -38 -171 -118 -204 -19 -8 -70 -18 -112 -22 l-78 -7 0 191 0 191
88 0 c71 0 96 -4 132 -22z"/>
<path d="M427 3273 c-3 -5 -6 -62 -8 -128 l-4 -120 164 4 164 4 -8 -499 c-5
-275 -9 -526 -9 -559 l-1 -60 175 3 c96 2 178 7 181 10 4 4 2 176 -2 382 -5
206 -6 453 -3 548 l6 172 154 0 c153 0 154 0 155 23 1 12 4 68 8 125 l6 102
-487 0 c-268 0 -489 -3 -491 -7z"/>
<path d="M17765 3235 l-150 -42 -3 -127 -3 -126 -55 0 c-35 0 -56 -5 -59 -13
-3 -6 -6 -57 -8 -111 l-2 -99 63 2 63 2 -7 -278 c-8 -350 0 -406 77 -481 42
-41 112 -63 207 -65 84 -2 200 10 220 22 13 8 37 183 28 206 -4 11 -13 12 -38
4 -61 -17 -105 -11 -140 19 l-31 29 -5 135 c-2 75 -1 197 3 273 l7 136 88 -7
88 -6 6 38 c3 22 8 74 12 117 l6 77 -101 0 -101 0 0 164 c0 91 -3 167 -7 169
-5 2 -75 -15 -158 -38z"/>
<path d="M3570 2945 c-63 -13 -131 -24 -151 -24 -51 -1 -57 -14 -48 -101 5
-41 12 -263 15 -494 l7 -419 81 7 c44 3 120 6 168 6 l86 0 -1 368 -2 367 54
28 c89 44 147 33 184 -37 21 -39 22 -54 25 -381 2 -187 7 -344 11 -348 4 -4
80 -5 168 -1 l161 7 -5 341 c-2 188 -8 378 -13 424 -21 187 -92 261 -260 270
-98 5 -174 -16 -272 -73 l-57 -34 -3 57 c-2 42 -7 57 -18 58 -8 1 -67 -9 -130
-21z"/>
<path d="M8544 2941 c-82 -15 -155 -30 -160 -34 -7 -4 -8 -31 -3 -74 10 -91
15 -478 10 -723 l-4 -195 174 3 c96 2 174 5 175 5 0 1 -2 236 -5 522 -5 452
-8 520 -21 521 -8 1 -83 -10 -166 -25z"/>
<path d="M21302 2940 c-85 -16 -156 -30 -158 -33 -3 -2 0 -92 6 -198 7 -123 9
-306 4 -498 l-7 -303 174 7 c96 4 174 8 175 9 0 0 -2 235 -5 521 -5 452 -8
520 -21 521 -8 1 -84 -11 -168 -26z"/>
<path d="M1675 2936 c-163 -53 -264 -164 -310 -341 -19 -76 -19 -250 0 -334
31 -131 120 -248 232 -304 156 -79 411 -86 588 -16 56 23 60 26 67 64 7 41 11
195 4 195 -2 0 -32 -13 -67 -29 -86 -39 -172 -55 -268 -49 -98 6 -161 35 -208
96 -31 41 -52 106 -39 119 4 4 145 9 314 12 l307 6 -1 105 c-3 269 -107 433
-309 486 -81 22 -228 17 -310 -10z m244 -203 c36 -28 60 -71 67 -125 6 -41 4
-46 -17 -51 -13 -4 -86 -7 -163 -7 l-139 0 7 48 c7 57 48 118 96 144 43 24
110 19 149 -9z"/>
<path d="M2788 2945 c-232 -59 -371 -253 -371 -520 0 -204 91 -376 242 -458
116 -64 312 -85 464 -51 113 26 107 17 107 154 0 66 -3 120 -7 120 -3 0 -31
-12 -62 -27 -48 -24 -68 -28 -141 -28 -68 1 -94 5 -127 23 -89 46 -136 141
-136 271 1 95 14 146 56 207 45 67 100 94 192 94 62 0 81 -5 134 -32 48 -24
64 -29 70 -19 5 7 11 52 15 99 3 48 9 97 12 109 5 19 -1 24 -63 44 -88 28
-298 36 -385 14z"/>
<path d="M4821 2940 c-174 -46 -277 -151 -322 -330 -30 -119 -24 -323 13 -422
68 -182 166 -259 368 -289 162 -23 353 13 452 86 108 80 166 212 175 400 15
310 -102 504 -339 560 -90 21 -255 18 -347 -5z m266 -209 c25 -18 46 -45 57
-72 43 -106 39 -380 -7 -469 -32 -62 -76 -90 -141 -90 -67 0 -115 32 -147 97
-23 45 -24 59 -24 233 0 174 1 188 24 233 48 98 155 128 238 68z"/>
<path d="M6514 2945 c-239 -52 -364 -232 -364 -525 0 -275 113 -453 322 -506
97 -25 286 -25 378 0 224 61 329 226 330 517 0 216 -69 375 -199 458 -100 64
-312 90 -467 56z m237 -208 c54 -36 79 -93 92 -207 8 -72 8 -124 0 -195 -20
-164 -73 -235 -176 -235 -69 0 -109 27 -144 98 -27 56 -28 61 -28 232 0 157 2
180 21 221 23 48 56 85 89 99 41 17 111 11 146 -13z"/>
<path d="M9250 2944 c-243 -64 -382 -275 -367 -554 8 -140 49 -246 131 -336
118 -132 359 -187 586 -133 l87 20 7 67 c9 101 7 182 -4 182 -6 0 -33 -11 -61
-25 -107 -55 -249 -41 -323 31 -62 60 -80 112 -80 234 -1 116 18 176 72 234
69 73 195 88 298 36 32 -16 64 -30 70 -30 13 0 39 229 27 240 -4 5 -44 18 -87
29 -96 25 -271 28 -356 5z"/>
<path d="M10154 2946 c-237 -54 -363 -234 -364 -518 0 -288 114 -463 340 -519
79 -20 278 -17 360 5 176 48 276 158 316 348 24 111 15 310 -19 405 -46 134
-134 225 -257 265 -84 27 -285 34 -376 14z m237 -209 c54 -36 79 -93 92 -207
14 -131 -1 -280 -35 -342 -32 -59 -79 -88 -141 -88 -69 0 -109 27 -144 98 -27
56 -28 61 -28 227 0 188 7 224 58 282 37 42 58 52 118 52 32 1 56 -6 80 -22z"/>
<path d="M13004 2941 c-217 -62 -338 -245 -338 -511 0 -173 44 -300 138 -393
100 -100 224 -141 421 -141 134 0 203 12 298 53 l45 19 7 112 c4 61 5 113 3
116 -3 2 -29 -7 -59 -20 -93 -43 -173 -59 -274 -54 -145 7 -229 67 -256 186
-6 30 -5 32 20 33 14 1 157 5 316 8 l290 6 -3 105 c-8 334 -159 501 -451 499
-59 0 -119 -7 -157 -18z m213 -200 c47 -22 76 -68 87 -137 6 -40 5 -42 -25
-48 -17 -3 -92 -6 -166 -6 l-134 0 7 38 c13 74 60 139 114 161 38 15 71 13
117 -8z"/>
<path d="M15880 2953 c-96 -16 -188 -61 -255 -124 -98 -93 -140 -215 -139
-409 1 -283 99 -440 314 -504 83 -25 230 -30 328 -13 264 48 382 209 385 522
2 292 -117 473 -340 520 -63 13 -234 18 -293 8z m201 -216 c79 -53 105 -147
96 -348 -6 -149 -23 -204 -78 -254 -34 -30 -46 -35 -90 -35 -60 0 -99 19 -133
62 -40 54 -50 110 -51 273 0 200 23 265 110 313 35 20 109 14 146 -11z"/>
<path d="M16891 2944 c-81 -22 -150 -64 -192 -116 -49 -62 -64 -107 -63 -194
0 -133 65 -219 211 -279 220 -90 217 -89 237 -126 17 -31 17 -38 5 -64 -8 -16
-30 -38 -49 -49 -71 -42 -231 -18 -334 51 -27 19 -52 30 -56 26 -4 -4 -11 -58
-14 -119 l-7 -111 39 -16 c96 -39 167 -51 292 -51 234 0 373 63 440 200 21 41
25 64 25 139 0 78 -4 97 -28 147 -40 82 -91 116 -274 184 -54 20 -110 45 -125
56 -80 56 -14 148 105 148 55 0 138 -24 199 -58 26 -15 49 -24 51 -22 7 8 23
210 17 219 -3 5 -46 18 -96 30 -110 25 -298 28 -383 5z"/>
<path d="M18555 2950 c-27 -5 -86 -20 -130 -32 l-80 -23 -8 -109 c-5 -59 -6
-111 -3 -114 4 -3 52 9 109 27 184 59 335 53 366 -15 25 -56 21 -59 -116 -82
-266 -44 -386 -109 -447 -241 -16 -36 -21 -66 -21 -136 0 -115 25 -175 101
-244 117 -107 296 -118 444 -26 l55 34 3 -41 3 -41 157 8 c86 4 159 8 162 10
3 2 2 50 -1 107 -4 56 -7 232 -8 389 -1 337 -6 363 -79 438 -73 75 -133 93
-312 97 -80 2 -167 -1 -195 -6z m265 -650 l0 -119 -30 -16 c-126 -65 -250 -22
-250 87 0 73 60 125 170 147 72 14 93 18 103 20 4 0 7 -53 7 -119z"/>
<path d="M22011 2944 c-121 -32 -199 -84 -266 -175 -86 -117 -124 -313 -91
-469 57 -269 259 -411 565 -398 58 3 134 13 167 22 59 17 62 20 68 54 10 62 7
212 -4 212 -6 0 -33 -11 -60 -25 -105 -53 -236 -43 -313 26 -66 57 -91 122
-91 234 0 107 13 159 57 217 46 62 104 88 192 88 59 0 79 -5 124 -30 30 -17
60 -30 66 -30 15 0 42 227 29 240 -5 5 -45 18 -88 29 -96 25 -271 28 -355 5z"/>
<path d="M22870 2945 c-41 -8 -100 -22 -130 -32 -64 -21 -67 -28 -69 -162 -1
-96 -16 -91 129 -45 69 22 105 27 192 28 102 1 109 0 132 -24 13 -14 27 -39
31 -56 l6 -32 -88 -12 c-132 -19 -266 -55 -334 -91 -76 -41 -142 -114 -164
-180 -23 -68 -17 -196 12 -260 84 -187 339 -244 530 -118 l42 28 3 -37 3 -37
160 3 c88 2 160 4 161 5 0 1 -2 185 -5 408 l-6 405 -30 59 c-35 69 -92 117
-168 141 -72 23 -306 28 -407 9z m290 -644 l0 -119 -42 -20 c-60 -27 -111 -35
-157 -22 -55 14 -81 51 -81 110 0 57 23 91 82 121 34 17 139 45 186 48 9 1 12
-29 12 -118z"/>
<path d="M7910 2940 c-348 -7 -375 -11 -475 -80 -187 -129 -190 -427 -4 -543
l49 -30 -19 -31 c-39 -66 -111 -205 -111 -214 0 -5 18 -21 39 -35 l40 -27 -59
-58 c-45 -45 -62 -71 -74 -112 -20 -67 -20 -83 0 -151 21 -72 106 -157 186
-187 164 -62 416 -49 569 28 150 76 226 227 189 379 -32 133 -139 203 -378
246 -102 19 -182 43 -182 55 0 5 5 20 11 33 10 22 19 25 93 30 131 9 236 56
310 137 55 61 70 102 70 195 0 64 -4 89 -23 123 l-22 44 68 -4 68 -3 8 49 c4
27 7 74 5 105 -3 48 -6 56 -23 57 -11 0 -162 -3 -335 -6z m-108 -200 c39 -30
58 -80 58 -150 0 -75 -21 -125 -64 -151 -61 -37 -132 -14 -167 53 -24 47 -26
156 -4 199 33 63 127 89 177 49z m-47 -886 c153 -40 175 -56 175 -129 0 -127
-267 -158 -340 -40 -29 48 -27 120 6 168 17 26 31 36 42 33 9 -3 62 -17 117
-32z"/>
<path d="M14635 1368 c-49 -10 -89 -20 -90 -21 0 -1 1 -298 3 -659 l4 -658 32
0 c18 0 61 3 94 6 l62 7 -7 326 -6 326 56 34 c80 47 134 64 190 58 58 -5 93
-29 121 -83 20 -37 21 -58 24 -358 l3 -318 92 7 c51 4 92 8 93 8 0 1 -3 157
-7 347 -5 233 -11 357 -20 382 -56 168 -273 208 -488 92 l-64 -35 5 276 c3
152 2 277 -1 278 -3 2 -46 -5 -96 -15z"/>
<path d="M7225 1375 c-5 -2 -36 -9 -67 -15 l-58 -11 7 -210 6 -209 -106 0
c-180 0 -280 -33 -376 -125 -98 -94 -147 -229 -138 -382 12 -196 113 -341 270
-388 99 -29 223 -13 300 39 l36 25 3 -32 3 -32 89 0 89 0 1 673 2 672 -26 -1
c-14 0 -29 -2 -35 -4z m-126 -584 c20 -13 12 -531 -10 -557 -27 -33 -110 -64
-172 -64 -104 0 -182 52 -217 146 -25 67 -27 196 -5 272 30 99 119 182 215
201 60 12 172 13 189 2z"/>
<path d="M4440 1250 c-127 -20 -238 -87 -280 -169 -46 -91 -44 -223 4 -305 48
-82 124 -133 312 -212 179 -74 240 -142 220 -248 -10 -50 -46 -98 -96 -126
-40 -22 -57 -25 -150 -25 -116 0 -174 15 -253 65 -57 36 -64 29 -68 -70 l-4
-75 59 -23 c198 -79 445 -64 579 34 164 120 182 377 36 508 -30 27 -91 63
-166 97 -220 101 -276 132 -300 168 -49 72 -20 162 67 211 40 22 56 25 150 25
95 -1 113 -4 188 -34 46 -18 86 -30 89 -27 12 12 19 147 8 156 -20 17 -176 49
-259 54 -45 3 -106 1 -136 -4z"/>
<path d="M620 1233 l-85 -4 3 -597 2 -597 97 0 97 0 -3 594 c-1 327 -4 598 -7
603 -3 4 -8 7 -12 6 -4 -1 -45 -4 -92 -5z"/>
<path d="M1276 1230 l-299 -5 4 -170 c2 -93 3 -362 1 -598 l-3 -427 356 0
c275 0 357 3 360 13 2 6 6 40 7 75 l3 63 -267 -1 -268 -1 0 201 0 200 240 0
240 0 0 29 c0 15 3 49 6 75 l7 46 -247 0 -246 0 0 128 c0 70 3 151 7 181 l6
54 253 -6 253 -7 6 33 c4 18 5 53 3 77 l-3 45 -60 0 c-33 1 -194 -2 -359 -5z"/>
<path d="M2170 1233 l-295 -3 0 -600 0 -600 353 0 352 0 11 27 c5 15 9 49 7
76 l-3 49 -261 -1 -261 -2 -7 23 c-9 34 -7 351 2 365 6 9 70 13 242 15 l235 3
3 73 3 72 -241 0 -240 0 0 182 0 181 254 -6 c140 -4 257 -4 259 1 3 4 6 39 8
77 l4 70 -65 0 c-36 1 -198 -1 -360 -2z"/>
<path d="M3067 1230 l-299 -5 0 -595 1 -595 347 -3 c253 -2 350 1 361 9 10 9
13 30 11 76 l-3 64 -262 -1 -263 -1 0 201 0 200 234 0 c129 0 237 3 240 8 2 4
6 37 7 72 l3 65 -242 3 -242 2 0 182 0 181 255 -6 c198 -5 257 -4 260 6 3 6 6
41 8 77 l2 65 -60 0 c-33 1 -194 -2 -358 -5z"/>
<path d="M10535 1233 l-120 -4 0 -599 0 -600 220 0 c344 1 427 20 530 124 46
46 65 74 78 115 37 115 14 234 -58 307 -46 46 -133 84 -193 84 -36 0 -35 1 38
38 87 43 131 94 156 179 45 155 -52 306 -220 343 -58 13 -254 19 -431 13z
m351 -148 c167 -49 166 -270 -1 -341 -27 -11 -79 -18 -162 -22 l-123 -5 0 192
0 191 118 0 c75 0 136 -5 168 -15z m32 -520 c96 -29 142 -87 142 -180 0 -70
-17 -112 -63 -152 -50 -44 -91 -54 -248 -60 l-136 -5 -6 68 c-4 38 -7 131 -7
207 l0 137 133 0 c90 0 150 -5 185 -15z"/>
<path d="M5158 1156 c-42 -11 -80 -25 -85 -29 -4 -5 -6 -53 -4 -108 l3 -99
-55 0 c-69 0 -79 -11 -75 -87 l3 -58 63 4 62 3 0 -303 c0 -274 2 -308 19 -344
22 -48 44 -69 94 -90 37 -15 157 -20 214 -9 29 6 31 9 37 66 3 33 4 64 1 68
-3 4 -24 4 -47 -2 -60 -13 -112 3 -126 40 -11 28 -17 211 -14 440 l2 132 94 0
94 0 4 66 c2 48 -1 68 -10 72 -7 2 -51 2 -98 0 l-85 -4 2 130 c1 72 -2 131 -7
132 -5 1 -44 -8 -86 -20z"/>
<path d="M9475 1155 l-80 -22 -3 -106 -3 -107 -54 0 c-29 0 -56 -3 -58 -7 -3
-5 -6 -37 -8 -73 l-4 -65 62 3 62 4 3 -314 3 -315 27 -41 c44 -65 74 -77 205
-77 61 0 115 4 120 8 4 5 8 36 8 70 l0 62 -30 -5 c-65 -10 -105 -4 -128 18
-22 22 -22 28 -25 307 l-3 285 94 0 94 0 6 63 c3 34 2 66 -3 71 -5 5 -50 7
-100 4 l-92 -4 3 129 c3 82 0 131 -6 132 -5 1 -46 -8 -90 -20z"/>
<path d="M7765 927 c-201 -52 -309 -210 -309 -457 -1 -228 93 -371 282 -431
119 -37 297 -26 402 25 l45 21 6 75 c3 41 4 78 2 82 -2 4 -27 -8 -56 -27 -109
-72 -265 -85 -367 -29 -82 44 -116 100 -135 221 l-7 43 299 2 298 3 3 69 c8
184 -76 334 -216 386 -69 26 -182 34 -247 17z m185 -132 c54 -28 94 -91 105
-168 l7 -47 -216 0 -215 0 5 33 c16 88 88 175 162 196 43 11 116 5 152 -14z"/>
<path d="M11760 928 c-50 -14 -97 -53 -120 -99 -11 -21 -21 -39 -23 -39 -1 0
0 25 1 55 6 86 7 84 -95 65 l-88 -16 0 -62 c1 -34 2 -229 3 -432 l2 -371 93 3
92 3 0 300 c0 226 3 307 13 330 31 69 89 100 159 85 20 -5 39 -8 40 -6 2 1 10
42 19 90 14 75 14 90 3 97 -18 11 -54 10 -99 -3z"/>
<path d="M12203 930 c-29 -6 -83 -20 -120 -32 l-68 -23 -3 -54 c-5 -83 -5 -83
90 -50 65 22 101 29 163 29 44 0 91 -6 104 -13 39 -20 64 -62 65 -108 l1 -43
-89 -13 c-316 -46 -434 -140 -429 -341 2 -78 38 -158 91 -202 99 -81 275 -84
395 -4 l37 24 0 -35 c0 -34 1 -35 38 -35 20 0 60 3 88 6 l51 6 -4 332 c-2 182
-8 354 -14 382 -13 67 -62 124 -129 153 -59 26 -186 35 -267 21z m237 -563 l0
-143 -41 -26 c-50 -33 -134 -52 -186 -42 -90 17 -144 122 -108 211 26 66 86
99 232 128 113 22 103 35 103 -128z"/>
<path d="M14072 930 c-122 -26 -227 -108 -280 -221 -72 -154 -70 -352 5 -492
36 -66 120 -140 191 -169 48 -19 75 -23 177 -23 113 0 123 2 180 30 l60 30 7
75 c3 41 4 77 2 80 -3 2 -13 -1 -22 -8 -140 -99 -307 -95 -397 11 -113 132
-88 409 45 506 82 59 183 63 285 12 37 -19 58 -25 61 -17 2 6 5 40 7 76 l2 65
-70 23 c-78 27 -188 36 -253 22z"/>
<path d="M8480 911 l-85 -17 0 -82 c0 -45 2 -240 3 -433 l2 -352 93 7 c50 4
94 10 97 14 3 4 3 72 -1 152 -4 80 -7 224 -8 320 l-1 175 48 31 c136 90 255
83 312 -17 l25 -44 3 -319 3 -318 92 7 c51 4 92 8 93 8 0 1 -3 157 -7 347 -5
243 -11 357 -20 385 -18 53 -93 127 -145 143 -99 29 -226 9 -342 -54 l-64 -35
7 30 c7 31 -1 72 -13 70 -4 -1 -45 -9 -92 -18z"/>
<path d="M12908 910 c-49 -9 -90 -19 -93 -22 -3 -2 0 -72 5 -154 5 -82 10
-274 10 -426 l0 -278 28 0 c15 0 57 3 93 6 l66 7 -5 326 -5 327 51 33 c98 63
195 77 252 39 82 -56 92 -112 88 -483 l-3 -250 90 3 c49 1 90 4 92 6 2 2 0
163 -5 357 -7 267 -12 361 -23 384 -26 57 -52 86 -98 113 -42 25 -55 27 -152
27 -106 0 -106 0 -198 -46 l-91 -45 0 42 c0 24 -3 45 -7 47 -5 2 -47 -4 -95
-13z"/>
<path d="M5593 913 c-23 -4 -23 -7 -22 -151 1 -278 16 -524 33 -573 34 -94
108 -151 218 -168 93 -15 171 4 310 77 4 2 8 -12 10 -30 4 -39 14 -43 113 -33
l71 6 -3 437 -4 437 -91 0 -91 0 2 -336 2 -337 -30 -21 c-59 -42 -114 -61
-181 -61 -80 0 -120 21 -152 82 -23 43 -23 46 -20 361 l2 317 -72 -1 c-40 -1
-83 -4 -95 -6z"/>
</g>
</svg>
